<svg xmlns="http://www.w3.org/2000/svg" viewBox="44.76 44.43 1910.26 443.59"><defs><style>.st0{fill:#d31c5b}</style></defs><g id="Afya"><path d="M346.05 44.43c-16.88 0-27.38 6.94-37.24 20.01-66.08 87.61-264.05 350.2-264.05 350.2h51.85c30.28 0 50.79-11.4 87.56-37.49 30.53-21.66 66.57-49.62 97.08-68.74 40.36-25.3 67.97-31.32 83-8.54 42.19 63.93 46.87 76.96 72.96 76.96h38.91l-95.61-332.4zm15.89 225.9c-24.85-13.47-56.13-5.95-93.63 12.61-37.73 18.68-81.79 48.57-131.9 79.53L346.05 85.01l68.11 239.48c-20.7-23.49-38.85-46.91-52.22-54.16M645.67 149.49h-65.04s2.49-17.09 3.34-22.79c2.2-14.82 6.76-25.75 13.62-32.8 6.85-7.04 17.88-10.56 33.08-10.56h24.46l19.56-38.91h-41.24c-29.65 0-51.89 6.39-66.71 19.18-14.83 12.79-24.09 34.03-28.35 63.65-.8 5.56-3.34 22.24-3.34 22.24h-38.91l-5.56 36.13h40.02l-26.68 191.22h45.03l26.68-191.22h65.04l5-36.13ZM872.47 149.49c-11.1 0-21.51 6.67-26.68 17.79l-85.05 175.1-46.14-192.89h-45.58l57.26 225.69c1.48 5.56 2.22 11.3 2.22 17.23 0 9.63-1.76 18.8-7.5 27.52-5.75 8.7-13.81 16.3-24.18 21.68-10.38 5.37-23.35 7.5-36.69 7.5h-20.82l-20.06 38.91h41.99c22.24 0 39.65-2.88 52.25-8.62 12.59-5.75 22.97-14.27 31.13-25.57 8.15-11.31 18.31-29.02 30.57-53.09 32.02-62.86 128.41-251.26 128.41-251.26h-31.13ZM1018.7 149.49h-77.27l-17.23 36.13h87.27c15.56 0 26.96 2.88 34.19 8.62 7.23 5.75 10.84 15.48 10.84 29.18 0 2.22-.75 11.03-1.26 14.45h-80.58c-23.72 0-43.27 5-58.65 15.01s-24.55 26.13-27.52 48.36c-.75 5.93-1.11 10.01-1.11 12.23 0 20.39 6.85 37.06 20.57 50.03 13.71 12.98 31.31 19.46 52.81 19.46 29.27 0 58.31-13.71 82.4-41.14 0 0 .01-.02.02-.02l1.65 35.04h36.13s13.32-95.91 17.79-128.08c1.12-8.09 2.78-19.9 2.78-30.35 0-45.95-27.61-68.93-82.83-68.93Zm-13.47 185.94c-12.98 6.11-24.83 9.17-35.58 9.17s-19.37-2.87-26.96-8.62q-11.4-8.61-11.4-24.18c0-13.34 3.98-22.97 11.95-28.91 7.96-5.92 18.25-8.89 30.85-8.89h76.29l-5 36.13c-12.23 10.75-27.19 19.18-40.15 25.29Z" class="st0"/></g><g id="Educacao"><path d="m1235.95 242.35 12.97-92.65h58.84l-2.15 15.15h-40.17l-3.23 22.72h37.87l-2.03 14.74h-37.87l-3.42 24.89h45.04l-2.15 15.15h-63.71ZM1393.12 228.55c-8.07 8.66-19.65 13.8-36.01 13.8h-40.17l12.97-92.65h38.14c23.54 0 37.94 12.85 38.81 36.65.6 16.5-4.11 31.79-13.74 42.2m-30.2-63.84h-16.5l-8.8 62.63h17.86c20.42 0 32.71-15.42 31.86-38.69-.57-15.56-8.18-23.94-24.42-23.94M1419.91 217.73c-.17-4.6.18-9.87.93-15.28l7.4-52.75h18.67l-7.61 54.37c-.42 3.11-.71 6.49-.6 9.33.37 10.15 7.33 15.42 18.02 15.42 13.8 0 20.42-7.44 22.66-23.81l7.71-55.32h18.12l-7.26 52.75c-1.94 13.66-4.39 24.07-12.76 31.92-8.11 7.57-18.3 9.88-29.13 9.88-22.32 0-35.54-10.01-36.14-26.51ZM1547.98 244.25c-18.4 0-33.4-10.82-34.28-34.76-.73-20.02 4.56-41.52 20.63-53.29 8.96-6.35 19.57-8.39 30.67-8.39 7.03 0 15.71.68 23.73 1.63l-2.13 15.69c-6.39-.95-13.45-1.62-19.67-1.62-24.48 0-34.79 17.85-33.82 44.09.44 11.91 6.31 20.97 21.73 20.97 8.92 0 20.46-2.71 29.29-5.27l-2.69 15.15c-10.3 2.98-22.51 5.82-33.46 5.82ZM1659.92 242.35l-4.44-21.37h-36.66l-10.44 21.37h-19.75l46.65-92.65h23.4l20.85 92.65zm-15.07-75.2h-.41l-18.99 39.09h27.32l-7.93-39.09ZM1729.72 243.84c3.41 4.46 6 8.93 6.17 13.53.32 8.66-6.32 11.9-15.25 11.9-2.98 0-6.24-.27-10.17-.54l1.01-9.33c1.5.27 3.53.41 5.02.41 4.06 0 6.17-1.49 6.03-5.27-.11-2.98-1.86-6.36-4.85-10.55-16.16-1.76-28.48-12.99-29.26-34.49-.73-20.02 4.56-41.52 20.63-53.29 8.96-6.35 19.57-8.39 30.67-8.39 7.03 0 15.71.68 23.73 1.63l-2.13 15.69c-6.39-.95-13.45-1.62-19.67-1.62-24.48 0-34.79 17.85-33.82 44.09.44 11.91 6.31 20.97 21.73 20.97 8.92 0 20.46-2.71 29.29-5.27l-2.69 15.15c-8.16 2.44-17.42 4.6-26.44 5.41ZM1834.64 242.35l-4.44-21.37h-36.66l-10.44 21.37h-19.75L1810 149.7h23.4l20.85 92.65zm-19.36-103.74c-2.84 0-3.83 2.44-4.34 7.03h-10.96c1.12-10.01 3.22-19.21 12.15-19.21 6.49 0 13.3 5 18.04 5 2.71 0 3.7-2.3 4.21-7.03h10.82c-.98 10.14-3.08 19.34-12 19.34-6.49 0-13.31-5.14-17.91-5.14Zm4.29 28.54h-.41l-18.99 39.09h27.32l-7.93-39.09ZM1936.38 234.51c-8.28 6.49-18.17 9.74-31.56 9.74-24.62 0-41.25-10.96-42.18-36.39-.7-19.21 4.91-39.36 18.72-50.18 8.28-6.63 18.17-9.74 31.56-9.74 24.62 0 41.11 10.82 42.04 36.25.71 19.34-4.78 39.36-18.58 50.32m-24.8-71.42c-23.26 0-30.34 21.1-29.54 43.01.56 15.28 9.09 22.86 24.1 22.86 23.27 0 30.34-20.97 29.54-42.88-.56-15.28-9.09-22.99-24.11-22.99Z" class="st0"/></g><g id="Medica"><path d="m1298.4 377.61 9.43-67.49h-.41l-32.83 67.49h-20.15l-13.16-67.49h-.27l-9.43 67.49h-16.23l12.97-92.65h25.56l14.15 72.23h.54l34.69-72.23h26.24l-12.97 92.65h-18.12ZM1340.39 377.61l12.97-92.65h58.84l-2.15 15.15h-40.17l-3.23 22.72h37.87l-2.03 14.74h-37.87l-3.42 24.89h45.04l-2.15 15.15h-63.71Zm31.62-96.85c6.22-7.3 11.77-14.61 16.91-21.91h18.8c-6.08 7.71-12.16 15.15-18.27 21.91H1372ZM1497.56 363.81c-8.07 8.66-19.65 13.8-36.01 13.8h-40.17l12.97-92.65h38.14c23.54 0 37.94 12.85 38.81 36.65.61 16.5-4.11 31.79-13.74 42.2m-30.21-63.84h-16.5l-8.8 62.63h17.86c20.42 0 32.71-15.42 31.85-38.69-.57-15.56-8.18-23.94-24.41-23.94M1521.22 377.61l12.97-92.65h18.67l-12.97 92.65zM1596.92 379.5c-18.4 0-33.4-10.82-34.28-34.76-.73-20.02 4.56-41.53 20.63-53.29 8.96-6.36 19.57-8.39 30.67-8.39 7.03 0 15.71.68 23.73 1.63l-2.13 15.69c-6.39-.95-13.45-1.62-19.67-1.62-24.48 0-34.79 17.85-33.82 44.09.44 11.9 6.31 20.97 21.73 20.97 8.93 0 20.46-2.7 29.3-5.27l-2.69 15.15c-10.3 2.98-22.51 5.82-33.47 5.82ZM1708.86 377.61l-4.44-21.37h-36.66l-10.44 21.37h-19.75l46.65-92.65h23.4l20.85 92.65zm-15.07-75.21h-.41l-18.99 39.09h27.32l-7.93-39.09Z" class="st0"/></g></svg>